<?xml version="1.0" encoding="UTF-8"?>
<svg version="1.1" xmlns="http://www.w3.org/2000/svg" width="97" height="97">
<path d="M0 0 C5.00070272 3.53708241 8.0555811 7.93276923 9.11328125 13.94140625 C9.26152344 14.88886719 9.40976563 15.83632813 9.5625 16.8125 C10.34753906 15.94625 11.13257813 15.08 11.94140625 14.1875 C13.00163838 13.06158977 14.06289066 11.93663957 15.125 10.8125 C15.63869141 10.24015625 16.15238281 9.6678125 16.68164062 9.078125 C19.65891398 5.97140498 20.92290296 4.89716228 25.33984375 4.3125 C28.5625 4.8125 28.5625 4.8125 30.5625 6.8125 C31.1088156 10.14896009 31.31247187 12.62178902 29.45635796 15.56869316 C27.80064334 17.48729506 26.05970109 19.26095455 24.24780273 21.03295898 C23.57629684 21.71673111 22.90479095 22.40050323 22.2129364 23.10499573 C19.99126421 25.35744452 17.74499726 27.58335704 15.49609375 29.80859375 C13.94241948 31.36698381 12.38978556 32.9264117 10.83815002 34.48683167 C7.58329632 37.75200325 4.31612357 41.00418419 1.03979492 44.24780273 C-3.15851099 48.40622653 -7.32460675 52.59528683 -11.48198032 56.79458523 C-14.68212244 60.0200245 -17.89875371 63.22860165 -21.12061882 66.43232918 C-22.66353245 67.97057385 -24.20126471 69.51403379 -25.733675 71.06274223 C-27.87831057 73.22516095 -30.0441186 75.36386053 -32.21704102 77.49780273 C-32.84642578 78.14135712 -33.47581055 78.7849115 -34.12426758 79.44796753 C-37.30939234 82.52806551 -38.74342471 83.7182337 -43.26377869 84.33216858 C-46.4375 83.8125 -46.4375 83.8125 -48.4375 81.8125 C-48.87890625 78.5 -48.87890625 78.5 -48.4375 74.8125 C-46.03426211 71.97422959 -43.37948269 69.81623865 -40.52734375 67.4375 C-38.05283943 64.92466014 -38.05283943 64.92466014 -38.6171875 61.39453125 C-38.88789062 60.21246094 -39.15859375 59.03039063 -39.4375 57.8125 C-39.54654409 55.71023146 -39.6116261 53.6050522 -39.625 51.5 C-39.63917969 50.47261719 -39.65335938 49.44523437 -39.66796875 48.38671875 C-39.4375 45.8125 -39.4375 45.8125 -37.4375 43.8125 C-34.9375 43.5625 -34.9375 43.5625 -32.4375 43.8125 C-29.94244038 46.30755962 -30.07801624 47.48578888 -29.8125 50.9375 C-29.73773437 51.84757812 -29.66296875 52.75765625 -29.5859375 53.6953125 C-29.53695313 54.39398438 -29.48796875 55.09265625 -29.4375 55.8125 C-27.06354568 53.43854568 -27.18762312 52.97171082 -27.18212891 49.74926758 C-27.17169052 48.49204643 -27.17169052 48.49204643 -27.16104126 47.20942688 C-27.16203827 46.30113632 -27.16303528 45.39284576 -27.1640625 44.45703125 C-27.14376225 42.53580159 -27.12291126 40.61457768 -27.1015625 38.69335938 C-27.07901522 35.66295534 -27.06251508 32.63277881 -27.05664062 29.60229492 C-27.04708168 26.67845395 -27.01324958 23.75564054 -26.9765625 20.83203125 C-26.98160797 19.93386185 -26.98665344 19.03569244 -26.99185181 18.11030579 C-26.89956099 12.16847982 -25.87282128 8.69491586 -22.4375 3.8125 C-16.0558228 -2.10222521 -8.13965807 -2.81188188 0 0 Z " fill="#FFFFFF" transform="translate(57.4375,1.1875)"/>
<path d="M0 0 C2.5 0.25 2.5 0.25 4.5 2.25 C5.68454824 11.97252582 4.11692218 20.97647669 -1.5625 29 C-6.2521758 34.60376515 -12.01216455 38.40810868 -19.125 40.125 C-19.90875 40.16625 -20.6925 40.2075 -21.5 40.25 C-21.5 41.57 -21.5 42.89 -21.5 44.25 C-20.35660156 44.23839844 -19.21320312 44.22679687 -18.03515625 44.21484375 C-16.54427246 44.20546712 -15.05338691 44.19636679 -13.5625 44.1875 C-12.80775391 44.17912109 -12.05300781 44.17074219 -11.27539062 44.16210938 C-9.35005687 44.15347559 -7.42464419 44.19775667 -5.5 44.25 C-4.5 45.25 -4.5 45.25 -4.5 52.25 C-18.69 52.25 -32.88 52.25 -47.5 52.25 C-47.5 45.25 -47.5 45.25 -46.5 44.25 C-43.80345146 44.17680379 -41.13308542 44.15757463 -38.4375 44.1875 C-37.29958008 44.19426758 -37.29958008 44.19426758 -36.13867188 44.20117188 C-34.25908129 44.2129932 -32.37953101 44.23092922 -30.5 44.25 C-30.5 42.93 -30.5 41.61 -30.5 40.25 C-31.17546875 40.07984375 -31.8509375 39.9096875 -32.546875 39.734375 C-41.40685413 37.32732865 -41.40685413 37.32732865 -44.5 33.25 C-42.85 31.6 -41.2 29.95 -39.5 28.25 C-38.95472656 28.4665625 -38.40945312 28.683125 -37.84765625 28.90625 C-30.06145979 31.78115331 -23.983762 32.65909983 -16.25 29.1875 C-10.63441669 26.12207272 -7.54665629 22.38996886 -5.5 16.25 C-5.22926677 12.63592622 -5.05448271 9.02220736 -4.87890625 5.40234375 C-4.42016459 1.5858023 -3.92417902 0.3924179 0 0 Z " fill="#FFFFFF" transform="translate(74.5,44.75)"/>
<path d="M0 0 C0.13615919 3.00155373 0.2346398 5.996821 0.3125 9 C0.35439453 9.83917969 0.39628906 10.67835937 0.43945312 11.54296875 C0.56170395 17.85111132 -0.77895381 22.2149623 -5 27 C-9.66398994 30.4476071 -14.10319808 31.59009107 -19.87890625 31.33984375 C-22.95143429 30.84756025 -25.36987506 29.61853843 -28 28 C-23.19190414 22.17371914 -17.98195045 16.82776498 -12.63012695 11.49975586 C-11.16953741 10.04460429 -9.71446797 8.58408143 -8.25976562 7.12304688 C-7.34259766 6.20716797 -6.42542969 5.29128906 -5.48046875 4.34765625 C-4.64410889 3.51242432 -3.80774902 2.67719238 -2.94604492 1.81665039 C-1 0 -1 0 0 0 Z " fill="#FFFFFF" transform="translate(66,43)"/>
</svg>
